<svg id="9e8f3ff2-1fe7-4375-9cb3-8f873e6976e0" data-name="Layer 1" xmlns="http://www.w3.org/2000/svg" viewBox="0 0 350 92"><title>Artboard 1</title><path d="M17,24.5h4L36.2,59.9H32.3l-5.1-12H10.8l-5.2,12H1.9Zm8.8,20.3L19.1,28.5l-7,16.3Z" style="fill:#fff"/><path d="M35.9,33.7h3.6l9.2,22,9.4-22h3.5l-11,26.2H47Z" style="fill:#fff"/><path d="M90.9,46.9A13.9,13.9,0,0,1,77.3,60.5,13.8,13.8,0,0,1,63.5,46.6c0-7.3,6.4-13.5,13.8-13.5A13.8,13.8,0,0,1,90.9,46.9Zm-24-.2c0,6.1,4.5,10.8,10.4,10.8s10.2-4.8,10.2-10.8a9.5,9.5,0,0,0-2.9-7.3,10.2,10.2,0,0,0-17.7,7.3Z" style="fill:#fff"/><path d="M97.2,33.7h3.3v3.4c2.6-2.8,4.9-4,8.1-4a11.6,11.6,0,0,1,9.1,4.2,13.1,13.1,0,0,1,2.4,8.2V59.9h-3.3V45.5a9.7,9.7,0,0,0-2.1-6.6,8.3,8.3,0,0,0-6.1-2.8,8,8,0,0,0-6.6,3.5c-1,1.3-1.3,2.9-1.3,5.9V59.9H97.2Z" style="fill:#fff"/><path d="M153.4,52.2a14.5,14.5,0,0,1-5.4,6.2,12.8,12.8,0,0,1-7.4,2.1c-8,0-14.3-6-14.3-13.7a13.9,13.9,0,0,1,14.2-13.7,13.7,13.7,0,0,1,12.9,8.5h-4a10.5,10.5,0,0,0-19.7,5.2,10.5,10.5,0,0,0,10.6,10.7c3.8,0,6.4-1.6,9.1-5.3Z" style="fill:#fff"/><path d="M159.3,33.7h3.3v3.8c1.6-3,3.6-4.2,7.7-4.4v3.5a7.2,7.2,0,0,0-4.8,1.8c-2,1.7-2.7,3.3-2.7,6.2V59.9h-3.5Z" style="fill:#fff"/><path d="M199.9,46.9a13.9,13.9,0,0,1-13.6,13.6,13.7,13.7,0,1,1,13.6-13.6Zm-24-.2a10.5,10.5,0,0,0,10.4,10.8c5.7,0,10.2-4.8,10.2-10.8a9.5,9.5,0,0,0-2.9-7.3,10.2,10.2,0,0,0-17.7,7.3Z" style="fill:#fff"/><path d="M207.3,36.7h-4.1v-3h4.1c.2-3.3.6-4.7,1.8-6.1s4.3-2.9,7.6-2.9h.6v3.2h-.5c-4,0-6.2,1.9-6.2,5.4v.5h6.7v3h-6.7V59.9h-3.3Z" style="fill:#fff"/><path d="M224.1,36.7h-7.4v-3h7.4V24.5h3.4v9.2h6.3v3h-6.3V59.9h-3.4Z" style="fill:#fff"/><path d="M127.4,70.9h2.7l6.5,15.3,6.6-15.3h2.7V88.8h-1.8V72.9l-6.7,15.9h-1.5l-6.7-15.9V88.8h-1.8Z" style="fill:#fff"/><path d="M161.7,88.8h-1.6v-2a4.7,4.7,0,0,1-4.5,2.4,5.4,5.4,0,0,1-4.5-2.3,6.4,6.4,0,0,1-1-4V75.6h1.7v7.3a4.8,4.8,0,0,0,.8,3.1,3.8,3.8,0,0,0,3.3,1.6,4,4,0,0,0,3.3-1.7,5.3,5.3,0,0,0,.8-3V75.6h1.7Z" style="fill:#fff"/><path d="M166.4,84.9a3,3,0,0,0,.6,1.8,2.5,2.5,0,0,0,1.9.9,2.4,2.4,0,0,0,2.4-2.3c0-1.3-.7-2-2.7-2.6a6.4,6.4,0,0,1-2.5-1.3,3.3,3.3,0,0,1-1-2.4,3.8,3.8,0,0,1,7.5-.1h-1.8a2,2,0,0,0-2-2.1,2.1,2.1,0,0,0-2,1.9,2.1,2.1,0,0,0,.8,1.6,5,5,0,0,0,1.6.7c2.7.9,3.8,2,3.8,3.9a4.2,4.2,0,1,1-8.4,0Z" style="fill:#fff"/><path d="M177.3,82.8a5.1,5.1,0,0,0,9.8,1.7h1.8a6.9,6.9,0,0,1-13.4-2.3,6.9,6.9,0,0,1,13-3.3,7.3,7.3,0,0,1,.8,3.9Zm10.2-1.5a5.7,5.7,0,0,0-1.5-3,5.1,5.1,0,0,0-8.7,3Z" style="fill:#fff"/><path d="M204.1,88.8h-1.6v-2a4.7,4.7,0,0,1-4.5,2.4,5.3,5.3,0,0,1-4.5-2.3,6.4,6.4,0,0,1-1-4V75.6h1.7v7.3A4.8,4.8,0,0,0,195,86a3.7,3.7,0,0,0,3.3,1.6,4,4,0,0,0,3.3-1.7,5.3,5.3,0,0,0,.8-3V75.6h1.7Z" style="fill:#fff"/><path d="M208.1,75.6h1.7v1.5a3.8,3.8,0,0,1,3.6-1.8,6,6,0,0,1,3.2,1,5,5,0,0,1,1.3,1.5,4.8,4.8,0,0,1,4.5-2.5,5.6,5.6,0,0,1,4.3,2.1,5.9,5.9,0,0,1,1,3.6v7.8H226V81.1a4.7,4.7,0,0,0-.9-3,3.5,3.5,0,0,0-2.7-1.3,3.8,3.8,0,0,0-3.1,1.6,5,5,0,0,0-.5,2.7v7.7h-1.7V81c0-2.4-1.6-4.2-3.7-4.2a3.4,3.4,0,0,0-3,1.7,4.4,4.4,0,0,0-.5,2.5v7.8h-1.8Z" style="fill:#fff"/><path d="M338.3,5.5s3.9,2,4.2,5.7c0,0,2.7-2.9,5.8-3,0,0-3.5-.4-5,.5" style="fill:#fff"/><path d="M323.8,4.3s2.6-.6,4.2,1a6.1,6.1,0,0,1,1.5-3.7s-1.8,1.2-2.1,2.2" style="fill:#fff"/><rect x="251.5" y="10.7" width="71.5" height="23.25" style="fill:#fff"/><path d="M327,59.2h4.8c.3,0-.3-6.9,4.8-16.7,0,0-5.4,6.5-6.5,14.3A53.1,53.1,0,0,1,333,31.9s-4.8,6.8-5,23.3a14.7,14.7,0,0,0-5.9-8.7A22.2,22.2,0,0,1,327,59.2Z" style="fill:#fff"/><path d="M251.5,35.9V59.2h48.3V47.4a5.8,5.8,0,1,1,11.6,0V59.2H323V35.9Z" style="fill:#fff"/></svg>